# xmcd
#
# Track frame offsets:
#	182
#	14482
#	29317
#	43227
#	58032
#	72340
#	86307
#	100927
#	114310
#	128625
#	142385
#	156097
#	170665
#	186420
#	200730
#	214485
#	229505
#	243707
#	260500
#	275992
#	289847
#	305035
#	319320
#	332252
#
# Disc length: 4620 seconds
#
# Revision: 1
# Processed by: cddbd v1.4PL0 Copyright (c) Steve Scherf et al.
# Submitted via: audiograbber 1.80
#
DISCID=7d120a18
DTITLE=bessie smith - classics 1924-25
DYEAR=1900
DGENRE=
TTITLE0=weeping willow blues
TTITLE1=the bye bye blues 
TTITLE2=sing sing prison blues
TTITLE3=follow the deal on down
TTITLE4=sinful blues
TTITLE5=woman's trouble blues
TTITLE6=love me daddy blues
TTITLE7=dying gambler's blues
TTITLE8=the st. louis blues
TTITLE9=reckless blues
TTITLE10=sobbin' hearted blues
TTITLE11=cold in hand blues
TTITLE12=you've been a good old wagon
TTITLE13=cake walkin' babies (from home)
TTITLE14=the yellow dog blues
TTITLE15=soft pedal blues
TTITLE16=dixie flyer blues
TTITLE17=nashville woman's blues
TTITLE18=carelesss love blues
TTITLE19=j. c. holmes blues
TTITLE20=i ain't gonna play no second fiddle
TTITLE21=he's gone blues
TTITLE22=nobody's blues but mine
TTITLE23=i ain't got nobody
EXTD=\n
EXTT0=
EXTT1=
EXTT2=
EXTT3=
EXTT4=
EXTT5=
EXTT6=
EXTT7=
EXTT8=
EXTT9=
EXTT10=
EXTT11=
EXTT12=
EXTT13=
EXTT14=
EXTT15=
EXTT16=
EXTT17=
EXTT18=
EXTT19=
EXTT20=
EXTT21=
EXTT22=
EXTT23=
PLAYORDER=
